<svg id="Layer_1" data-name="Layer 1" xmlns="http://www.w3.org/2000/svg" xmlns:xlink="http://www.w3.org/1999/xlink" viewBox="0 0 48 49"><defs><style>.cls-1{fill:url(#linear-gradient);}.cls-2{fill:url(#linear-gradient-2);}.cls-3{fill:url(#linear-gradient-3);}.cls-4{fill:url(#linear-gradient-4);}.cls-5{fill:url(#New_Gradient_Swatch_5);}.cls-6{fill:url(#New_Gradient_Swatch_5-2);}.cls-7{fill:url(#New_Gradient_Swatch_5-3);}</style><linearGradient id="linear-gradient" y1="3.78" x2="34.75" y2="3.78" gradientUnits="userSpaceOnUse"><stop offset="0" stop-color="#e91e63"/><stop offset="0.15" stop-color="#eb3059"/><stop offset="0.46" stop-color="#f2603e"/><stop offset="0.89" stop-color="#fcac13"/><stop offset="1" stop-color="#ffc107"/></linearGradient><linearGradient id="linear-gradient-2" x1="13.99" y1="43.09" x2="49.4" y2="43.09" gradientUnits="userSpaceOnUse"><stop offset="0" stop-color="#120f82"/><stop offset="1" stop-color="#00b1ff"/></linearGradient><linearGradient id="linear-gradient-3" x1="35.29" y1="18.51" x2="49.4" y2="18.51" gradientUnits="userSpaceOnUse"><stop offset="0" stop-color="#c2ff42"/><stop offset="1" stop-color="#27cabf"/></linearGradient><linearGradient id="linear-gradient-4" y1="27.93" x2="12.7" y2="27.93" gradientUnits="userSpaceOnUse"><stop offset="0" stop-color="#ffbf2e"/><stop offset="1" stop-color="#fffb3b"/></linearGradient><linearGradient id="New_Gradient_Swatch_5" x1="3.37" y1="24.69" x2="19.19" y2="24.69" gradientUnits="userSpaceOnUse"><stop offset="0" stop-color="#120f82"/><stop offset="1" stop-color="#2a5aa7"/></linearGradient><linearGradient id="New_Gradient_Swatch_5-2" x1="20.24" y1="24.87" x2="32.34" y2="24.87" xlink:href="#New_Gradient_Swatch_5"/><linearGradient id="New_Gradient_Swatch_5-3" x1="33.53" y1="24.87" x2="45.93" y2="24.87" xlink:href="#New_Gradient_Swatch_5"/></defs><title>logo 50</title><polygon class="cls-1" points="0 7.56 0.2 1.08 0.24 0 1.25 0.03 34.75 1.08 1.25 2.13 2.3 1.08 2.5 7.56 0 7.56"/><polygon class="cls-2" points="49.4 38.9 49.26 46.14 49.23 47.28 48.15 47.25 13.99 46.14 48.15 45.04 47.05 46.14 46.9 38.9 49.4 38.9"/><polygon class="cls-3" points="46.9 36.71 47.34 1.17 48.15 1.98 35.29 1.17 48.15 0.35 48.96 0.3 48.97 1.17 49.4 36.71 46.9 36.71"/><polygon class="cls-4" points="2.5 9.41 1.55 46.14 1.25 45.84 12.7 46.14 1.25 46.44 0.96 46.45 0.95 46.14 0 9.41 2.5 9.41"/><path class="cls-5" d="M8.13,35.71l1.78-5.57h3.27a4.79,4.79,0,0,1,.81.06c-.14-.39-.29-.88-.47-1.47s-.34-1.15-.5-1.67l-1.71-5.74L6.85,35.71H3.37L9.47,16.1a8.07,8.07,0,0,1,.75-1.68,1.25,1.25,0,0,1,2.27-.05,7,7,0,0,1,.76,1.73l5.94,19.61Z" transform="translate(-0.22 -1.42)"/><path class="cls-6" d="M32.34,24.66a20.87,20.87,0,0,1-.44,4.39,13.93,13.93,0,0,1-1.19,3.5,7,7,0,0,1-1.81,2.32,3.6,3.6,0,0,1-2.29.84H20.24V22.2h3v7.94h3.41a2,2,0,0,0,1.13-.37,3.16,3.16,0,0,0,.89-1.06,6.46,6.46,0,0,0,.58-1.63,10.76,10.76,0,0,0,0-4.23,5.94,5.94,0,0,0-.6-1.67,3.48,3.48,0,0,0-.89-1.11,1.74,1.74,0,0,0-1.11-.4H20.24L22.12,14h4.49a3.78,3.78,0,0,1,2.3.78A6.44,6.44,0,0,1,30.72,17a12.54,12.54,0,0,1,1.19,3.37A19.73,19.73,0,0,1,32.34,24.66Z" transform="translate(-0.22 -1.42)"/><path class="cls-7" d="M45.93,30.14,44,35.71H39.26A3.58,3.58,0,0,1,37,34.87a7,7,0,0,1-1.81-2.32,13.93,13.93,0,0,1-1.2-3.5,21.57,21.57,0,0,1-.43-4.39A20.69,20.69,0,0,1,34,20.33,13,13,0,0,1,35.16,17,6.38,6.38,0,0,1,37,14.79,3.79,3.79,0,0,1,39.26,14h6.67L44,19.67H39.26a1.79,1.79,0,0,0-1.11.39,3.33,3.33,0,0,0-.88,1.08,6.4,6.4,0,0,0-.58,1.67A9.51,9.51,0,0,0,36.47,25a10,10,0,0,0,.21,2.13,6.1,6.1,0,0,0,.58,1.63,3.16,3.16,0,0,0,.89,1.06,1.9,1.9,0,0,0,1.11.37Z" transform="translate(-0.22 -1.42)"/></svg>